<svg width="140" height="140" viewBox="0 0 140 140" fill="none" xmlns="http://www.w3.org/2000/svg">
<path d="M85.6012 0.312197C84.229 0.8459 82.4189 3.36193 82.0102 5.30614C81.0175 10.1095 83.3531 14.5316 87.1486 15.0272L88.7543 15.2559V17.0858V18.9537L90.1557 18.6487C90.9148 18.4963 93.4256 18.3819 95.7612 18.3819C98.0969 18.3819 100.608 18.4963 101.396 18.6487L102.768 18.9537V17.0858V15.2559L104.403 15.0272C106.359 14.7603 107.965 13.5023 108.928 11.4437C109.483 10.3001 109.629 9.46141 109.629 7.5172C109.629 4.54371 108.87 2.67574 107.06 1.11275L105.892 0.0834656L96.2284 0.00722122C90.6228 -0.030899 86.1559 0.0834656 85.6012 0.312197Z" fill="white"/>
<path d="M91.5279 24.5195C79.6746 26.7305 72.1421 31.4576 64.4929 41.4074C57.7487 50.2516 53.8074 59.9727 52.0848 72.1335C51.3257 77.3943 51.3257 87.0772 52.0848 92.338C53.8074 104.499 57.7779 114.258 64.4929 123.064C71.2371 131.832 78.7111 137.017 88.0245 139.266C91.9659 140.219 99.7611 140.257 103.498 139.304C112.636 136.94 120.023 132.023 126.533 123.827C133.278 115.325 137.598 104.842 139.467 92.338C140.197 87.4585 140.168 77.28 139.438 72.1335C137.715 59.9727 133.745 50.2135 127.03 41.4074C120.432 32.83 113.279 27.7598 104.257 25.3963C101.571 24.672 93.5716 24.1383 91.5279 24.5195ZM103.79 31.4958C117.716 35.4604 128.635 48.0025 133.219 65.3097C134.854 71.5236 135.292 75.107 135.292 82.2358C135.292 89.0596 134.912 92.6049 133.54 98.0563C130.3 111.132 122.913 122.416 113.571 128.554C104.345 134.615 93.2505 135.682 83.47 131.413C81.6015 130.612 79.1491 129.354 78.0396 128.63C67.0621 121.387 59.1793 107.777 56.7269 91.8424C56.0262 87.2678 56.0262 77.2037 56.7269 72.6291C60.0844 50.8235 73.018 34.5455 89.8346 30.9621C93.3089 30.1996 100.228 30.4665 103.79 31.4958Z" fill="white"/>
<path d="M91.236 36.9853C85.3969 37.824 77.8645 42.0173 73.8355 46.7444L72.5509 48.2312L75.85 52.6152C79.4119 57.3804 79.6746 58.1047 78.4484 59.9727C77.9521 60.697 77.4849 61.002 76.8135 61.002C75.996 61.002 75.4121 60.4301 72.5509 56.6942L69.2518 52.4246L68.0548 54.4069C64.4054 60.4301 61.7778 68.7407 61.0771 76.4031L60.8435 79.186H65.8943C70.8868 79.186 70.9743 79.186 71.675 80.1391C72.1422 80.7109 72.4049 81.5115 72.4049 82.2358C72.4049 82.9601 72.1422 83.7606 71.675 84.3325C70.9743 85.2855 70.8868 85.2855 65.8943 85.2855H60.8435L61.0771 87.8397C61.515 92.9861 62.7412 98.2088 64.5513 102.936C65.5732 105.528 68.1132 110.636 68.6387 111.018C68.8139 111.17 70.4196 109.378 72.3757 106.862C74.5946 104.041 76.0252 102.44 76.4339 102.44C78.0981 102.44 79.4119 104.461 78.9739 106.329C78.8571 106.824 77.2806 109.188 75.4413 111.589L72.113 115.973L73.8647 117.803C78.682 122.912 85.3385 126.609 91.3236 127.524L93.4257 127.829V121.234C93.4257 114.715 93.4257 114.601 94.1556 113.686C95.0898 112.428 96.4328 112.428 97.3671 113.686C98.097 114.601 98.097 114.715 98.097 121.234V127.829L100.228 127.524C105.98 126.648 112.957 122.835 117.278 118.223L118.592 116.812L114.709 111.742C111.352 107.358 110.855 106.519 110.855 105.452C110.855 104.575 111.089 103.965 111.644 103.317C113.133 101.678 113.6 101.983 117.892 107.472L121.804 112.543L122.972 110.827C126.533 105.643 129.774 95.769 130.446 88.0303L130.679 85.2855H125.628C120.636 85.2855 120.548 85.2855 119.848 84.3325C118.884 83.1126 118.884 81.359 119.848 80.1391C120.548 79.186 120.636 79.186 125.628 79.186H130.679L130.446 76.4031C129.745 68.6263 126.913 59.9346 123.001 53.6445L121.599 51.3572L118.096 55.9318C116.169 58.4097 114.271 60.6208 113.863 60.8114C112.14 61.65 110.359 59.3246 111.001 57.0754C111.147 56.5417 112.782 54.1401 114.651 51.7003C116.636 49.0699 117.95 47.0875 117.833 46.8207C117.512 46.1345 113.629 42.8179 111.615 41.4836C107.994 39.1201 103.994 37.519 100.082 36.9472L98.097 36.6422V43.2372C98.097 49.7561 98.097 49.8704 97.3671 50.7853C96.5204 51.929 95.2066 52.0052 94.2724 51.0141C93.6009 50.2898 93.5717 50.061 93.4257 43.466L93.2797 36.6803L91.236 36.9853ZM97.2503 57.0373L98.097 58.1428V71.8285C98.097 83.2269 98.0386 85.6286 97.659 86.3148C97.1335 87.2678 86.3312 93.4054 85.1342 93.4054C84.1123 93.4054 82.9153 91.8043 82.9153 90.4701C82.9153 88.8308 83.908 87.9159 88.6084 85.2855L93.2797 82.6932L93.4257 70.2274L93.5717 57.7616L94.3892 56.8467C95.4694 55.6268 96.1993 55.703 97.2503 57.0373Z" fill="white"/>
<path d="M62.7704 28.0648C59.9093 29.2847 58.0116 32.1438 57.632 35.8035C57.4861 37.214 57.8948 40.6831 58.2159 40.6831C58.2743 40.6831 59.6173 39.0057 61.1939 36.9472C62.7996 34.9267 64.9601 32.4107 66.0695 31.3814C67.1498 30.314 68.0256 29.361 68.0256 29.2466C68.0256 28.3317 64.1718 27.4549 62.7704 28.0648Z" fill="white"/>
<path d="M124.811 28.2935C124.169 28.5985 123.614 28.8654 123.585 28.8654C123.147 28.9035 123.847 29.8184 125.482 31.3814C126.563 32.4107 128.723 34.9267 130.329 36.9472C131.905 39.0057 133.248 40.6831 133.307 40.6831C133.365 40.6831 133.54 39.9588 133.715 39.082C134.299 36.261 133.628 32.9444 131.993 30.6571C130.27 28.2173 127.088 27.1499 124.811 28.2935Z" fill="white"/>
<path d="M21.7506 43.5422C21.2835 44.1141 21.0208 44.9146 21.0208 45.6389C21.0208 46.3632 21.2835 47.1638 21.7506 47.7356L22.4513 48.6887H37.3702H52.2891L52.9898 47.7356C53.457 47.1638 53.7197 46.3632 53.7197 45.6389C53.7197 44.9146 53.457 44.1141 52.9898 43.5422L52.2891 42.5892H37.3702H22.4513L21.7506 43.5422Z" fill="white"/>
<path d="M10.0724 61.8407C9.60529 62.4125 9.34253 63.213 9.34253 63.9374C9.34253 64.6617 9.60529 65.4622 10.0724 66.034L10.7731 66.9871H29.1955H47.6178L48.3185 66.034C48.7857 65.4622 49.0484 64.6617 49.0484 63.9374C49.0484 63.213 48.7857 62.4125 48.3185 61.8407L47.6178 60.8876H29.1955H10.7731L10.0724 61.8407Z" fill="white"/>
<path d="M0.729888 80.1391C0.26276 80.7109 0 81.5115 0 82.2358C0 82.9601 0.26276 83.7607 0.729888 84.3325L1.43058 85.2855H22.1886H42.9466L43.6473 84.3325C44.1144 83.7607 44.3772 82.9601 44.3772 82.2358C44.3772 81.5115 44.1144 80.7109 43.6473 80.1391L42.9466 79.186H22.1886H1.43058L0.729888 80.1391Z" fill="white"/>
<path d="M10.0724 98.4375C9.60529 99.0093 9.34253 99.8099 9.34253 100.534C9.34253 101.258 9.60529 102.059 10.0724 102.631L10.7731 103.584H29.1955H47.6178L48.3185 102.631C48.7857 102.059 49.0484 101.258 49.0484 100.534C49.0484 99.8099 48.7857 99.0093 48.3185 98.4375L47.6178 97.4844H29.1955H10.7731L10.0724 98.4375Z" fill="white"/>
<path d="M21.7506 116.736C21.2835 117.308 21.0208 118.108 21.0208 118.833C21.0208 119.557 21.2835 120.358 21.7506 120.929L22.4513 121.882H37.3702H52.2891L52.9898 120.929C53.457 120.358 53.7197 119.557 53.7197 118.833C53.7197 118.108 53.457 117.308 52.9898 116.736L52.2891 115.783H37.3702H22.4513L21.7506 116.736Z" fill="white"/>
</svg>
