<?xml version="1.0" standalone="no"?>
<!DOCTYPE svg PUBLIC "-//W3C//DTD SVG 20010904//EN"
 "http://www.w3.org/TR/2001/REC-SVG-20010904/DTD/svg10.dtd">
<svg version="1.0" xmlns="http://www.w3.org/2000/svg"
 width="512.000000pt" height="512.000000pt" viewBox="0 0 512.000000 512.000000"
 preserveAspectRatio="xMidYMid meet">

<g transform="translate(0.000000,512.000000) scale(0.100000,-0.100000)"
fill="#000000" stroke="none">
<path d="M1120 4947 c-49 -16 -133 -102 -148 -153 -8 -29 -12 -155 -12 -433
l0 -392 25 -24 c20 -21 34 -25 80 -25 l55 0 0 -120 0 -120 -175 0 c-175 0
-176 0 -201 -25 l-26 -26 5 -307 c4 -340 8 -366 73 -496 48 -94 101 -161 246
-304 109 -107 129 -122 158 -122 29 0 49 15 158 122 152 150 201 213 252 320
61 130 70 194 70 513 l0 276 -25 24 c-24 25 -27 25 -200 25 l-175 0 0 120 0
120 55 0 c46 0 60 4 80 25 l25 24 0 392 c0 274 -4 404 -12 431 -17 59 -88 133
-145 152 -53 18 -112 19 -163 3z m398 -1664 c-5 -224 -7 -242 -31 -312 -35
-98 -82 -167 -194 -281 l-93 -95 -95 98 c-114 117 -158 180 -192 278 -24 70
-26 88 -31 312 l-5 237 323 0 323 0 -5 -237z"/>
<path d="M2531 4946 c-46 -17 -108 -70 -130 -114 -10 -20 -31 -98 -46 -172
-36 -183 -35 -180 -52 -180 -7 0 -25 -11 -38 -25 -24 -23 -25 -29 -25 -158 l0
-134 -91 -5 c-78 -5 -100 -11 -163 -42 -127 -62 -210 -181 -223 -319 -5 -61
-4 -67 20 -91 22 -22 35 -26 80 -26 l54 0 5 -84 c9 -135 65 -224 177 -281 26
-13 67 -26 92 -30 l46 -7 6 -106 c8 -177 71 -330 182 -450 l53 -58 4 -92 3
-92 -99 0 c-54 0 -117 -6 -140 -12 -39 -12 -122 -82 -142 -120 -6 -11 -90 -39
-263 -87 -315 -89 -398 -128 -512 -244 -86 -87 -137 -172 -180 -302 l-24 -70
-3 -718 -3 -717 25 -25 25 -25 1871 0 1871 0 25 25 25 25 -3 717 -3 718 -24
70 c-58 174 -151 300 -293 396 -84 57 -138 77 -413 154 -163 45 -243 72 -249
83 -20 38 -103 108 -142 120 -23 6 -86 12 -140 12 l-99 0 3 92 4 92 53 58
c111 120 173 272 182 450 l6 106 46 7 c58 9 154 59 187 98 51 61 76 126 82
214 l5 83 54 0 c45 0 58 4 80 26 24 24 25 30 20 91 -13 138 -96 257 -223 319
-63 31 -85 37 -163 42 l-91 5 0 134 c0 129 -1 135 -25 158 -13 14 -31 25 -38
25 -17 0 -16 -3 -52 180 -37 186 -66 234 -165 279 -40 18 -66 21 -218 21
l-174 0 -64 -62 -64 -61 -64 61 -64 62 -174 -1 c-109 0 -185 -5 -207 -13z
m395 -226 c68 -67 87 -80 114 -80 27 0 46 13 114 80 l82 80 127 0 c171 0 169
1 207 -183 l27 -137 -557 0 -557 0 27 137 c38 184 36 183 207 183 l127 0 82
-80z m1094 -744 c57 -30 120 -99 120 -131 0 -3 -495 -5 -1100 -5 -605 0 -1100
3 -1100 6 0 12 24 51 49 77 27 30 67 54 111 68 14 4 444 7 955 6 886 -2 932
-3 965 -21z m-1780 -417 l0 -121 -27 7 c-83 20 -133 89 -133 182 l0 53 80 0
80 0 0 -121z m400 41 l0 -80 80 0 80 0 0 80 0 80 240 0 240 0 0 -80 0 -80 80
0 80 0 0 80 0 80 120 0 120 0 0 -262 c0 -285 -9 -356 -54 -451 l-24 -52 -1 52
c-3 163 -120 320 -278 372 -57 19 -87 21 -282 21 -190 0 -227 -3 -282 -20
-158 -49 -278 -210 -279 -374 l-1 -51 -20 38 c-49 93 -59 172 -59 459 l0 268
120 0 120 0 0 -80z m1360 27 c0 -93 -50 -162 -132 -182 l-28 -7 0 121 0 121
80 0 80 0 0 -53z m-1600 -2032 c0 -509 -3 -731 -11 -748 -14 -32 -49 -47 -104
-47 l-45 0 0 725 c0 511 3 731 11 749 15 32 43 44 102 45 l47 1 0 -725z m1393
714 c14 -6 30 -22 36 -36 8 -17 11 -239 11 -748 l0 -725 -45 0 c-55 0 -90 15
-104 47 -8 17 -11 239 -11 748 l0 725 45 0 c24 0 55 -5 68 -11z m-1130 -161
c102 -96 225 -143 377 -143 115 0 170 14 271 67 59 31 136 98 182 158 l27 35
0 -467 c0 -258 -3 -468 -7 -468 -5 0 -17 7 -27 15 -29 22 -863 22 -892 0 -10
-8 -22 -15 -26 -15 -5 0 -8 210 -8 468 l0 467 27 -35 c15 -19 49 -56 76 -82z
m-583 -575 l0 -588 -41 -29 c-40 -28 -42 -28 -69 -12 -25 14 -70 16 -359 16
l-331 0 0 303 c0 344 7 395 67 510 45 86 135 180 215 226 35 20 140 56 280 96
123 35 226 64 231 64 4 1 7 -263 7 -586z m2138 527 c100 -28 204 -59 231 -69
117 -44 222 -141 286 -263 58 -109 65 -163 65 -505 l0 -303 -331 0 c-289 0
-334 -2 -359 -16 -27 -16 -29 -16 -69 12 l-41 29 0 588 c0 556 1 588 18 583 9
-3 99 -28 200 -56z m-753 -937 l54 -38 3 -161 c3 -159 3 -161 33 -210 19 -30
49 -60 79 -79 47 -29 54 -30 182 -33 131 -3 134 -3 159 22 19 19 25 35 25 71
0 25 2 45 5 45 3 0 21 -10 40 -22 l35 -23 0 -207 0 -208 -1040 0 -1040 0 0
208 0 207 35 23 c19 12 37 22 40 22 3 0 5 -20 5 -45 0 -36 6 -52 25 -71 25
-25 28 -25 159 -22 128 3 135 4 182 33 30 19 60 49 79 79 30 49 30 51 33 210
l3 161 52 37 52 37 373 1 374 0 53 -37z m-1625 -603 l0 -240 -280 0 -280 0 0
240 0 240 280 0 280 0 0 -240z m2960 0 l0 -240 -280 0 -280 0 0 240 0 240 280
0 280 0 0 -240z"/>
<path d="M483 2681 c-57 -45 -100 -97 -134 -161 -19 -36 -24 -61 -24 -120 1
-90 26 -146 104 -233 48 -52 51 -58 51 -109 l0 -54 -70 34 c-63 32 -81 36
-174 40 -102 4 -105 4 -130 -21 -25 -25 -26 -31 -26 -138 0 -144 11 -181 75
-244 61 -62 101 -75 229 -75 l96 0 0 -118 0 -118 -70 34 c-63 32 -81 36 -174
40 -102 4 -105 4 -130 -21 -25 -25 -26 -31 -26 -138 0 -144 11 -181 75 -244
61 -62 101 -75 229 -75 l96 0 0 -118 0 -118 -70 34 c-63 32 -81 36 -174 40
-102 4 -105 4 -130 -21 -25 -25 -26 -31 -26 -138 0 -144 11 -181 75 -244 61
-62 101 -75 229 -75 l96 0 0 -80 0 -80 80 0 80 0 0 80 0 80 120 0 120 0 0 80
0 80 -110 0 c-60 0 -110 2 -110 5 0 15 31 63 57 86 45 43 90 60 169 66 l74 6
0 80 0 80 -91 -5 c-77 -5 -101 -11 -160 -40 l-69 -34 0 118 0 118 120 0 120 0
0 80 0 80 -110 0 c-60 0 -110 2 -110 5 0 15 31 63 57 86 45 43 90 60 169 66
l74 6 0 80 0 80 -91 -5 c-77 -5 -101 -11 -160 -40 l-69 -34 0 118 0 118 120 0
120 0 0 80 0 80 -110 0 c-60 0 -110 2 -110 5 0 15 31 63 57 86 35 33 77 54
126 63 l37 7 0 -41 0 -40 80 0 80 0 0 95 c0 90 -2 98 -26 122 -25 25 -28 25
-130 21 -93 -4 -111 -8 -174 -40 l-70 -34 0 54 c0 51 3 57 51 109 78 87 103
143 104 233 0 59 -5 84 -24 120 -52 100 -158 200 -211 200 -18 0 -47 -15 -77
-39z m104 -173 c28 -31 53 -82 53 -108 0 -27 -32 -90 -59 -114 -21 -19 -21
-19 -42 0 -27 24 -59 87 -59 114 0 36 58 130 80 130 4 0 16 -10 27 -22z m-242
-615 c51 -25 115 -97 115 -128 0 -10 -149 -5 -173 6 -32 14 -47 49 -47 105 l0
45 38 -7 c20 -4 51 -13 67 -21z m0 -640 c51 -25 115 -97 115 -128 0 -10 -149
-5 -173 6 -32 14 -47 49 -47 105 l0 45 38 -7 c20 -4 51 -13 67 -21z m0 -640
c51 -25 115 -97 115 -128 0 -10 -149 -5 -173 6 -32 14 -47 49 -47 105 l0 45
38 -7 c20 -4 51 -13 67 -21z"/>
</g>
</svg>
