<?xml version="1.0" standalone="no"?>
<!DOCTYPE svg PUBLIC "-//W3C//DTD SVG 20010904//EN"
 "http://www.w3.org/TR/2001/REC-SVG-20010904/DTD/svg10.dtd">
<svg version="1.0" xmlns="http://www.w3.org/2000/svg"
 width="512.000000pt" height="512.000000pt" viewBox="0 0 512.000000 512.000000"
 preserveAspectRatio="xMidYMid meet">

<g transform="translate(0.000000,512.000000) scale(0.100000,-0.100000)"
fill="#000000" stroke="none">
<path d="M2385 4994 c-469 -106 -496 -114 -570 -152 -121 -64 -208 -173 -249
-312 -19 -63 -51 -457 -69 -834 l-12 -259 -46 -11 c-193 -49 -306 -262 -240
-451 12 -32 21 -61 21 -62 0 -2 -25 -3 -55 -3 -53 0 -55 1 -69 34 -23 56 -40
58 -506 54 -403 -3 -416 -4 -455 -25 -152 -82 -178 -258 -57 -380 44 -44 49
-54 60 -119 39 -243 189 -441 432 -574 l65 -35 6 -103 c6 -94 9 -106 34 -132
l27 -28 -7 -244 c-8 -254 -6 -275 34 -305 29 -22 85 -16 112 13 24 25 24 27
28 280 l3 254 44 0 44 0 1 -122 c0 -68 6 -360 12 -651 7 -290 8 -538 4 -551
-4 -13 -22 -30 -38 -36 -27 -11 -34 -10 -57 7 l-27 20 0 331 c0 329 0 331 -22
354 -32 31 -87 28 -122 -6 l-26 -26 -7 -318 c-9 -378 -5 -399 72 -474 124
-120 320 -78 390 83 l21 51 -14 671 -15 671 24 23 c13 12 25 23 25 25 1 2 4
50 8 108 l6 105 83 44 c143 76 196 142 161 200 -10 15 -5 27 32 73 24 30 49
63 55 74 10 17 12 16 29 -16 52 -100 156 -211 297 -316 57 -42 104 -79 105
-83 2 -3 -23 -16 -54 -29 -49 -20 -58 -21 -65 -8 -5 8 -24 18 -43 22 -29 5
-45 0 -91 -27 -115 -69 -230 -222 -282 -374 l-27 -80 -3 -618 -3 -617 25 -25
25 -25 1269 0 1269 0 24 26 24 26 3 526 c3 570 -3 692 -42 803 -49 140 -151
275 -271 355 -57 39 -91 43 -127 15 -24 -20 -25 -20 -81 2 -31 12 -57 24 -56
27 0 3 39 33 87 67 164 116 256 215 339 363 64 115 113 300 113 429 l0 56 49
23 c133 61 215 216 192 362 -23 141 -138 266 -265 287 -35 5 -35 6 -40 67 -3
33 -8 138 -11 231 -7 193 -41 670 -55 759 -26 166 -157 325 -317 386 -66 25
-805 190 -845 189 -18 -1 -159 -30 -313 -65z m235 -483 l0 -338 -147 -8 c-82
-3 -204 -13 -273 -20 -68 -8 -125 -13 -127 -11 -6 6 17 335 27 379 14 65 51
136 91 175 26 25 71 45 223 96 105 35 194 65 199 65 4 1 7 -151 7 -338z m389
269 c101 -35 196 -74 210 -86 38 -32 78 -110 95 -185 8 -35 18 -135 21 -223
l8 -158 -39 6 c-77 11 -232 25 -366 32 l-138 7 0 339 c0 268 3 339 13 336 6
-3 95 -33 196 -68z m499 -86 c28 -14 72 -48 96 -75 68 -76 84 -131 102 -351 8
-105 13 -192 10 -195 -3 -3 -47 3 -99 12 l-93 18 -11 206 c-13 227 -27 300
-81 404 -7 14 25 7 76 -19z m-408 -719 c225 -20 609 -81 628 -100 8 -8 23
-305 17 -332 -8 -33 -45 -63 -77 -63 -15 0 -83 29 -150 64 -139 73 -315 137
-457 166 -411 83 -866 12 -1212 -191 -79 -46 -119 -50 -154 -14 -23 22 -25 32
-25 108 0 46 3 125 6 174 l7 91 101 21 c186 38 435 72 611 84 148 10 557 5
705 -8z m-88 -435 c174 -37 302 -85 497 -190 87 -46 147 -58 210 -41 24 6 45
10 46 9 1 -2 15 -137 31 -302 24 -264 26 -309 16 -390 -24 -194 -118 -373
-254 -489 -64 -54 -448 -334 -539 -393 -89 -58 -175 -86 -282 -92 -110 -6
-187 10 -280 58 -108 55 -539 371 -633 465 -153 152 -226 327 -225 540 1 95
45 592 54 601 2 2 18 -1 36 -7 63 -22 132 -4 274 71 192 101 343 148 592 184
76 11 363 -4 457 -24z m-1558 -435 c-8 -83 -15 -153 -17 -158 -4 -15 -48 25
-67 63 -26 51 -25 105 3 160 18 37 83 97 93 87 2 -1 -4 -70 -12 -152z m2546
119 c43 -37 60 -74 60 -134 0 -57 -15 -93 -54 -129 -32 -30 -31 -32 -45 129
-16 183 -17 181 39 134z m-320 -1625 c60 -58 113 -137 142 -214 22 -59 23 -67
26 -607 l3 -548 -101 0 -100 0 0 658 c0 717 2 690 -56 712 -19 8 -24 17 -24
45 l0 36 31 -18 c17 -10 52 -39 79 -64z m-470 11 c0 -42 -3 -50 -18 -50 -37 0
-64 -45 -77 -129 -31 -193 -147 -320 -325 -357 -237 -49 -460 114 -491 358
-10 80 -28 115 -64 124 -22 5 -25 12 -25 50 0 24 3 44 6 44 4 0 32 -16 62 -37
143 -94 270 -135 426 -135 164 0 288 39 431 136 39 25 71 46 72 46 2 0 3 -22
3 -50z"/>
<path d="M2115 3417 c-159 -41 -241 -160 -153 -221 33 -24 68 -20 118 14 90
60 157 61 240 4 60 -41 101 -44 135 -9 37 36 34 84 -7 125 -77 77 -224 115
-333 87z"/>
<path d="M3120 3416 c-132 -38 -213 -123 -179 -188 30 -57 86 -64 144 -18 77
61 160 62 245 4 60 -41 98 -44 134 -8 37 37 34 75 -9 123 -70 78 -227 119
-335 87z"/>
<path d="M2520 3160 c-30 -30 -32 -50 -28 -276 3 -227 6 -239 64 -298 40 -39
78 -57 138 -63 68 -6 148 33 191 95 l30 44 3 232 c3 224 2 233 -18 259 -16 20
-30 27 -55 27 -88 0 -95 -21 -95 -264 0 -164 -3 -197 -16 -210 -20 -21 -30
-20 -54 4 -19 19 -20 33 -20 219 0 185 -1 200 -21 225 -26 33 -88 37 -119 6z"/>
<path d="M2165 3088 c-39 -22 -44 -40 -45 -144 0 -92 2 -102 23 -121 33 -31
62 -36 97 -18 41 21 50 49 50 151 0 81 -2 87 -29 115 -31 30 -63 36 -96 17z"/>
<path d="M3156 3075 c-25 -23 -26 -28 -26 -127 1 -111 7 -130 54 -148 40 -15
90 9 105 50 15 46 14 154 -3 195 -25 59 -84 73 -130 30z"/>
<path d="M2354 2366 c-41 -18 -61 -65 -44 -106 16 -38 99 -102 182 -139 163
-74 359 -59 507 40 111 74 140 138 86 189 -35 33 -76 30 -128 -9 -77 -59 -145
-85 -228 -89 -100 -5 -170 15 -245 72 -72 53 -90 59 -130 42z"/>
<path d="M2673 2005 c-39 -17 -53 -53 -53 -141 0 -78 16 -126 45 -138 35 -13
76 -6 100 19 23 22 25 32 25 118 0 79 -3 98 -20 119 -24 31 -59 39 -97 23z"/>
<path d="M4475 4870 c-49 -23 -62 -34 -98 -82 -24 -33 -33 -38 -68 -38 -144 0
-236 -158 -169 -290 l22 -43 -22 -47 c-24 -51 -28 -111 -10 -164 21 -65 110
-126 185 -126 24 0 40 -7 53 -22 79 -101 138 -129 229 -108 60 13 95 38 128
90 22 35 28 38 80 42 139 12 227 162 165 283 -25 48 -25 52 0 106 26 58 25
115 -2 169 -34 66 -84 100 -158 109 -41 5 -65 13 -71 24 -57 101 -170 143
-264 97z"/>
<path d="M664 4218 c-81 -83 -139 -151 -153 -180 -91 -191 -14 -407 177 -496
49 -23 70 -27 147 -27 77 0 98 4 147 27 214 100 282 360 143 546 -23 31 -90
103 -147 160 -97 94 -108 102 -144 102 -37 0 -46 -7 -170 -132z m337 -244 c25
-42 34 -112 19 -158 -55 -168 -287 -182 -361 -21 -42 91 -21 153 89 267 l86
89 73 -73 c41 -40 83 -87 94 -104z"/>
<path d="M4712 2834 c-42 -29 -44 -44 -26 -210 18 -174 13 -204 -37 -229 -53
-28 -114 -13 -139 35 -6 10 -17 83 -25 162 -9 79 -20 153 -25 165 -14 33 -54
56 -87 49 -73 -16 -199 -159 -238 -271 -23 -64 -31 -220 -16 -282 7 -27 30
-87 52 -135 49 -107 73 -213 64 -288 -9 -79 -29 -145 -96 -312 -74 -187 -76
-220 -10 -248 40 -16 75 -6 99 28 24 35 136 318 159 402 23 89 23 255 -1 335
-9 33 -36 100 -58 149 -51 111 -61 202 -32 287 l18 54 13 -67 c15 -84 41 -135
91 -180 58 -52 117 -72 201 -66 163 12 262 137 248 312 -5 65 -5 69 9 51 58
-75 82 -178 64 -270 -15 -75 -37 -112 -121 -201 -122 -131 -138 -160 -289
-539 -101 -251 -120 -321 -120 -437 0 -122 14 -180 82 -331 45 -100 54 -183
29 -269 -16 -56 -31 -63 -31 -15 0 130 -96 241 -232 268 -72 15 -121 -6 -138
-57 -21 -62 32 -114 118 -114 27 0 69 -39 76 -72 3 -12 12 -85 20 -162 13
-118 18 -142 37 -162 66 -71 209 27 289 198 68 146 65 285 -12 454 -67 146
-84 259 -57 372 14 54 198 521 235 594 14 27 65 92 114 144 104 111 153 199
172 311 35 212 -79 435 -273 532 -70 35 -95 38 -127 15z"/>
</g>
</svg>
