<?xml version="1.0" standalone="no"?>
<!DOCTYPE svg PUBLIC "-//W3C//DTD SVG 20010904//EN"
 "http://www.w3.org/TR/2001/REC-SVG-20010904/DTD/svg10.dtd">
<svg version="1.0" xmlns="http://www.w3.org/2000/svg"
 width="512.000000pt" height="512.000000pt" viewBox="0 0 512.000000 512.000000"
 preserveAspectRatio="xMidYMid meet">

<g transform="translate(0.000000,512.000000) scale(0.100000,-0.100000)"
fill="#000000" stroke="none">
<path d="M755 4950 c-144 -26 -270 -94 -381 -204 -89 -90 -142 -174 -183 -294
l-26 -77 -3 -641 -3 -640 161 -201 160 -201 0 -201 c0 -201 0 -202 25 -226
l24 -25 578 0 c457 0 589 3 629 14 125 33 235 121 291 231 53 102 53 106 53
753 l0 602 378 0 c438 0 444 1 515 80 90 100 90 220 0 320 -71 79 -76 80 -518
80 l-382 0 -7 51 c-17 130 -107 291 -218 394 -81 76 -154 119 -265 159 l-88
31 -345 2 c-190 1 -367 -3 -395 -7z m525 -445 l0 -296 25 -24 24 -25 296 0
295 0 0 -80 0 -80 -800 0 -800 0 0 80 0 80 120 0 120 0 0 80 0 80 -115 0 c-63
0 -115 4 -115 8 0 5 7 33 16 63 59 198 227 355 423 394 42 8 149 13 289 14
l222 1 0 -295z m640 -1165 c0 -275 -1 -500 -3 -500 -1 0 -82 27 -179 59 l-177
59 -25 -76 c-14 -41 -25 -76 -23 -77 1 -1 90 -31 197 -67 183 -61 195 -66 198
-91 5 -44 -37 -124 -90 -172 -84 -75 -80 -75 -665 -75 l-513 0 0 133 0 132
305 114 c211 78 310 120 320 135 36 51 -2 126 -65 126 -17 0 -48 9 -70 20
-145 74 -105 273 61 299 88 14 89 17 89 267 l0 214 320 0 320 0 0 -500z"/>
<path d="M1600 3440 l0 -80 80 0 80 0 0 80 0 80 -80 0 -80 0 0 -80z"/>
<path d="M4345 4935 l-25 -24 0 -456 0 -455 -135 0 c-131 0 -137 -1 -160 -25
-25 -24 -25 -27 -25 -199 l0 -174 -167 -4 c-164 -3 -169 -4 -235 -35 -90 -42
-150 -100 -193 -186 -19 -38 -35 -76 -35 -83 0 -11 -35 -14 -182 -14 l-183 0
-600 -600 -600 -599 -671 -3 -670 -3 -76 -37 c-91 -45 -147 -103 -191 -196
l-32 -67 -3 -783 -3 -782 25 -25 25 -25 831 0 831 0 24 25 c24 23 25 29 25
162 l0 138 493 38 492 37 261 175 262 174 34 103 35 103 90 3 90 3 5 -73 c8
-114 53 -184 148 -227 90 -41 180 -22 256 54 74 74 76 87 72 441 l-3 300 -37
76 c-45 91 -103 147 -196 191 l-67 32 -335 0 -335 0 -67 -32 c-90 -42 -150
-100 -193 -186 -19 -38 -35 -76 -35 -83 0 -11 -41 -14 -220 -14 l-221 0 -24
-25 c-25 -24 -25 -26 -25 -215 0 -189 0 -191 25 -215 l24 -25 -264 0 -265 0 0
23 c0 16 187 209 698 720 584 584 701 697 725 697 16 0 27 -5 27 -14 0 -7 16
-45 35 -83 43 -86 103 -144 193 -186 66 -31 71 -32 235 -35 l167 -4 0 -134 c0
-130 1 -136 25 -159 23 -24 29 -25 160 -25 l135 0 0 -855 0 -856 25 -24 24
-25 271 0 271 0 24 25 25 24 0 2351 0 2351 -25 24 -24 25 -271 0 -271 0 -24
-25z m455 -2375 l0 -2240 -160 0 -160 0 0 2240 0 2240 160 0 160 0 0 -2240z
m-1247 549 c39 -18 47 -50 47 -189 0 -73 -5 -140 -11 -153 -18 -40 -50 -47
-202 -47 l-141 0 -303 -302 -303 -303 -143 143 -142 142 360 360 360 360 227
0 c145 0 236 -4 251 -11z m447 -189 l0 -200 -122 0 -123 0 0 200 0 200 123 0
122 0 0 -200z m-140 -1184 c49 -26 88 -64 113 -111 21 -38 22 -56 25 -314 3
-293 0 -320 -44 -340 -36 -16 -50 -14 -81 13 -28 24 -28 26 -33 168 -6 133 -8
148 -37 209 -52 112 -127 180 -241 218 -55 19 -85 21 -282 21 -121 0 -220 3
-220 6 0 27 62 99 105 121 56 30 81 32 370 30 262 -2 293 -4 325 -21z m-549
-668 l-17 -53 -220 -148 -220 -147 -444 -35 c-245 -19 -455 -35 -467 -35 -23
0 -23 1 -23 155 l0 155 331 0 c209 0 337 4 350 10 10 6 35 42 54 80 l35 70
320 0 319 0 -18 -52z"/>
<path d="M3840 627 c-49 -16 -133 -102 -148 -153 -28 -94 -8 -169 63 -239 70
-71 145 -91 239 -63 55 16 138 99 154 154 26 89 9 163 -55 234 -65 72 -158 97
-253 67z m119 -160 c54 -27 48 -114 -9 -137 -80 -33 -146 65 -85 125 27 27 57
31 94 12z"/>
</g>
</svg>
