<?xml version="1.0" standalone="no"?>
<!DOCTYPE svg PUBLIC "-//W3C//DTD SVG 20010904//EN"
 "http://www.w3.org/TR/2001/REC-SVG-20010904/DTD/svg10.dtd">
<svg version="1.0" xmlns="http://www.w3.org/2000/svg"
 width="512.000000pt" height="512.000000pt" viewBox="0 0 512.000000 512.000000"
 preserveAspectRatio="xMidYMid meet">

<g transform="translate(0.000000,512.000000) scale(0.100000,-0.100000)"
fill="#000000" stroke="none">
<path d="M3040 4947 c-49 -16 -133 -102 -148 -153 -9 -31 -12 -315 -12 -1178
l0 -1136 -80 0 c-65 0 -80 3 -80 15 0 9 -11 27 -25 40 -24 25 -27 25 -200 25
l-175 0 0 55 c0 46 -4 60 -25 80 l-24 25 -391 0 -391 0 -24 -25 c-21 -20 -25
-34 -25 -80 l0 -55 -375 0 -376 0 -24 -25 c-14 -13 -25 -31 -25 -40 0 -13 -20
-15 -135 -15 -132 0 -137 -1 -162 -26 l-25 -25 5 -307 c4 -261 8 -320 25 -397
56 -247 161 -453 325 -637 l73 -83 28 -395 c15 -217 32 -402 37 -412 5 -10 18
-22 29 -28 12 -7 645 -10 1925 -10 l1906 0 24 25 25 24 0 428 0 428 -83 125
-83 125 -80 400 c-91 458 -85 445 -179 445 l-55 0 0 80 c0 65 3 80 15 80 9 0
27 11 40 25 21 20 25 34 25 80 l0 55 80 0 80 0 0 -55 c0 -67 29 -105 80 -105
51 0 80 38 80 105 l0 55 55 0 c46 0 60 4 80 25 24 23 25 28 25 173 0 128 -3
153 -17 171 -11 13 -68 38 -153 66 l-134 45 -464 0 -463 0 -24 -25 c-25 -24
-25 -26 -25 -215 0 -189 0 -191 25 -215 13 -14 31 -25 40 -25 12 0 15 -12 15
-55 0 -78 27 -105 105 -105 l55 0 0 -79 c0 -76 -1 -79 -25 -85 -48 -12 -52
-32 -84 -401 -17 -193 -31 -360 -31 -373 0 -21 -4 -22 -65 -22 l-65 0 -65 130
-65 130 0 1566 c0 1181 -3 1576 -12 1606 -17 59 -88 133 -145 152 -53 18 -112
19 -163 3z m135 -178 c20 -19 20 -34 23 -1554 l2 -1535 -80 0 -80 0 0 1523 c0
1201 3 1527 13 1547 25 50 80 59 122 19z m1375 -1997 l85 -29 3 -51 3 -52
-216 0 c-216 0 -216 0 -240 -25 -21 -20 -25 -34 -25 -80 l0 -55 -200 0 -200 0
0 55 c0 46 -4 60 -25 80 -13 14 -31 25 -40 25 -12 0 -15 15 -15 80 l0 80 393
0 393 0 84 -28z m-2390 -532 l0 -320 -280 0 -280 0 0 320 0 320 280 0 280 0 0
-320z m-720 80 l0 -80 -320 0 -320 0 0 80 0 80 320 0 320 0 0 -80z m1120 0 l0
-80 -120 0 -120 0 0 80 0 80 120 0 120 0 0 -80z m-1920 -91 c0 -62 5 -99 15
-117 11 -20 22 -137 43 -430 l28 -403 -28 33 c-35 43 -111 187 -144 274 -55
145 -66 220 -71 487 l-5 247 81 0 81 0 0 -91z m2240 -259 l0 -350 -65 -130
-65 -130 -56 0 -56 0 6 63 c3 34 15 197 26 362 15 213 25 308 35 327 10 17 15
56 15 117 l0 91 80 0 80 0 0 -350z m1200 270 l0 -80 -80 0 -80 0 0 80 0 80 80
0 80 0 0 -80z m-2640 -457 c0 -291 0 -297 22 -320 l21 -23 396 0 c392 0 395 0
418 22 l23 21 0 299 0 298 105 0 c104 0 105 0 101 -22 -3 -13 -15 -175 -28
-360 -18 -281 -25 -338 -37 -338 -8 0 -25 -10 -38 -22 -22 -20 -23 -28 -23
-158 l0 -136 -62 -41 c-81 -52 -165 -94 -256 -127 -40 -14 -75 -26 -78 -26 -2
0 -4 14 -4 32 0 19 -9 41 -22 55 -21 23 -24 23 -257 23 -227 0 -235 -1 -258
-22 -17 -16 -23 -32 -23 -65 0 -24 -4 -43 -10 -43 -5 0 -54 14 -107 31 -119
38 -249 103 -346 174 l-73 53 -33 474 c-17 260 -34 483 -37 496 l-4 22 305 0
305 0 0 -297z m2890 -163 l75 -375 78 -115 77 -115 0 -347 0 -348 -213 0 -214
0 -146 330 -147 330 0 166 0 166 -30 28 -30 28 27 316 27 316 210 -2 210 -3
76 -375z m-2170 60 l0 -80 -280 0 -280 0 0 80 0 80 280 0 280 0 0 -80z m1130
-292 c36 -72 76 -144 88 -160 l24 -28 139 0 139 0 0 -80 0 -80 -560 0 -560 0
0 80 0 80 139 0 139 0 24 28 c12 16 52 88 88 160 l64 132 106 0 106 0 64 -132z
m-612 -595 c-10 -49 -38 -173 -61 -278 l-42 -190 -144 -3 c-133 -2 -143 -1
-137 15 4 10 60 136 124 280 l116 263 82 0 82 0 -20 -87z m362 -193 l0 -280
-149 0 -149 0 9 38 c4 20 31 141 59 267 28 127 52 236 55 243 3 8 30 12 90 12
l85 0 0 -280z m377 85 c23 -104 51 -229 61 -277 l20 -88 -149 0 -149 0 0 280
0 281 87 -3 88 -3 42 -190z m405 -68 c64 -144 120 -270 124 -280 6 -16 -4 -17
-137 -15 l-144 3 -42 190 c-23 105 -51 229 -61 278 l-20 87 82 0 82 0 116
-263z m-2854 219 c110 -69 293 -143 411 -167 l61 -12 0 -65 c0 -54 4 -70 22
-89 21 -23 24 -23 258 -23 233 0 237 0 258 23 17 18 22 37 24 96 l3 73 101 33
c56 18 124 45 152 59 43 22 50 23 45 9 -4 -10 -50 -115 -103 -233 l-96 -215
-571 -3 -571 -2 -6 57 c-3 32 -10 128 -16 213 -6 85 -13 181 -16 213 -3 31 -3
57 0 57 4 0 23 -11 44 -24z m872 -116 l0 -80 -120 0 -120 0 0 80 0 80 120 0
120 0 0 -80z"/>
<path d="M1065 4455 c-14 -13 -25 -31 -25 -40 0 -43 -62 -149 -124 -211 -62
-62 -168 -124 -211 -124 -27 0 -65 -47 -65 -80 0 -35 38 -80 68 -80 44 0 161
-71 218 -133 53 -58 114 -165 114 -202 0 -27 47 -65 80 -65 35 0 80 38 80 67
0 33 58 142 102 189 55 60 147 120 215 140 57 17 83 43 83 84 0 41 -26 67 -83
84 -70 20 -162 81 -216 142 -45 50 -101 155 -101 187 0 29 -45 67 -80 67 -19
0 -40 -9 -55 -25z m98 -315 c20 -27 61 -68 90 -91 28 -23 52 -45 52 -49 0 -4
-24 -26 -52 -49 -29 -23 -70 -64 -90 -91 -21 -28 -40 -50 -43 -50 -3 0 -22 22
-43 50 -20 27 -61 68 -90 91 -28 23 -52 45 -52 49 0 4 24 26 52 49 29 23 70
64 90 91 21 28 40 50 43 50 3 0 22 -22 43 -50z"/>
<path d="M1740 3744 c-192 -70 -273 -277 -179 -455 36 -67 68 -98 143 -137 43
-22 64 -26 136 -27 79 0 90 3 150 36 231 127 222 456 -15 568 -65 31 -172 38
-235 15z m170 -166 c48 -25 90 -89 90 -138 0 -49 -42 -113 -90 -137 -24 -13
-56 -23 -70 -23 -49 0 -113 42 -137 90 -13 24 -23 56 -23 70 0 14 10 46 23 70
24 48 88 90 137 90 14 0 46 -10 70 -22z"/>
<path d="M1120 3187 c-19 -6 -58 -34 -85 -62 -71 -70 -91 -145 -63 -239 16
-55 99 -138 154 -154 94 -28 169 -8 239 63 102 101 102 229 0 330 -70 71 -152
91 -245 62z m114 -158 c58 -27 55 -115 -5 -139 -63 -26 -125 36 -100 99 19 44
60 60 105 40z"/>
</g>
</svg>
