<svg width="140" height="140" viewBox="0 0 140 140" fill="none" xmlns="http://www.w3.org/2000/svg">
<path d="M56.3828 3.9922C54.9336 4.70313 53.7852 5.60548 52.0352 7.35548C50.6953 8.69532 49.2188 9.98048 48.6992 10.2266C48.207 10.5 46.6758 10.8281 45.2813 10.9922C38.1719 11.7852 35.6016 13.7813 33.3594 20.207C32.7852 21.8477 32.0742 23.5703 31.7461 24.0352C31.418 24.5 29.9414 25.6484 28.4922 26.6055C25.4844 28.6016 23.4609 30.5977 22.6133 32.4844C22.0117 33.8242 21.9023 36.1758 22.1484 42.1094C22.2305 44.2149 22.1758 44.5703 21.4922 45.9102C21.0547 46.7305 20.3164 48.0156 19.7969 48.8086C16.8711 53.2109 16.9258 57.6406 20.0156 62.3711C22.3125 65.8984 22.4219 66.5 22.0117 72.2422C21.8203 74.9219 21.875 75.7422 22.2578 77.1914C22.9414 79.6524 24.5273 81.5938 27.5352 83.5352C31.6094 86.1875 32.2109 86.9805 33.4961 91.0273C34.3164 93.5977 36.0391 96.3047 37.625 97.5078C39.0742 98.6016 41.8633 99.4492 45.0898 99.8047C46.5117 99.9688 48.0703 100.297 48.5898 100.543C49.1094 100.789 50.668 102.102 52.0352 103.496C53.8672 105.328 55.043 106.23 56.3828 106.914C58.1875 107.789 58.3242 107.816 60.8945 107.68C63.082 107.57 63.9844 107.379 65.7617 106.641C69.1523 105.273 70.3008 105.273 74.375 106.641C80.7188 108.801 83.1797 108.227 87.9649 103.496C89.3594 102.102 90.918 100.762 91.4375 100.516C91.9297 100.297 93.543 99.9688 95.0195 99.8047C98.4102 99.4219 100.844 98.6563 102.32 97.5352C103.961 96.3047 105.684 93.625 106.504 91.0273C107.789 86.9805 108.391 86.1875 112.465 83.5352C115.473 81.5938 117.059 79.6524 117.742 77.1914C118.125 75.7422 118.18 74.9219 117.988 72.2422C117.578 66.4727 117.688 65.9805 120.313 61.7969C123.047 57.4492 122.992 53.0195 120.203 48.8086C119.684 48.0156 118.945 46.7305 118.508 45.9102C117.824 44.5703 117.77 44.2149 117.852 42.1094C118.098 36.1758 117.988 33.8242 117.387 32.4844C116.539 30.5977 114.516 28.6016 111.508 26.6055C110.059 25.6484 108.582 24.5 108.254 24.0352C107.926 23.5703 107.215 21.8477 106.641 20.207C104.398 13.7813 101.828 11.7852 94.7188 10.9922C93.3242 10.8281 91.793 10.5 91.3008 10.2539C90.8086 9.98048 89.332 8.69532 88.0195 7.38282C83.125 2.46095 80.2266 1.94141 73.0078 4.6211C72.1602 4.92188 70.8477 5.16798 70 5.16798C69.1523 5.16798 67.8398 4.92188 66.9922 4.6211C63.9297 3.47266 61.9063 3.00782 60.1289 3.00782C58.5977 3.00782 58.0234 3.17188 56.3828 3.9922ZM75.0859 20.8086C79.9258 21.4649 85.0664 23.4883 89.4688 26.4141C97.0977 31.4727 102.32 39.3203 104.344 48.6719C105.027 51.8984 105.055 58.8438 104.371 62.0703C102.074 72.8984 95.4844 81.5938 85.8594 86.5156C80.6094 89.1953 75.8789 90.3438 69.8633 90.3164C46.8945 90.2617 30.2695 68.4961 36.2305 46.293C39.7305 33.3047 50.5859 23.3516 63.875 20.9453C66.5 20.4805 72.1875 20.3984 75.0859 20.8086Z" fill="white"/>
<path d="M65.7891 26.5234C50.3672 28.957 39.3476 43.0938 41.0156 58.2969C42.3828 70.6836 50.832 80.4727 62.8906 83.6719C66.4453 84.6016 71.9687 84.7383 75.7422 83.9453C88.375 81.375 97.5625 71.2031 98.9844 58.2148C100.516 44.2422 91.0547 30.7344 77.2461 27.1797C74.1836 26.4141 68.6328 26.0859 65.7891 26.5234ZM83.125 44.2148C83.5625 44.4609 84.0273 44.9531 84.1914 45.3086C84.9297 46.9492 84.7383 47.332 78.4219 56.8203C75.0586 61.8516 72.0508 66.1992 71.668 66.4727C71.2851 66.8008 70.5742 66.9922 69.918 66.9922C68.8516 66.9922 68.6328 66.8281 63.793 61.9883C58.7617 57.0117 58.1875 56.2188 58.4609 54.7695C58.5976 53.9766 59.7734 52.8008 60.6211 52.6094C61.9062 52.2812 62.7539 52.8281 66.1719 56.1914L69.5625 59.5547L74.6484 52.0078C77.7383 47.3594 79.9805 44.2969 80.3906 44.1055C81.3203 43.6406 82.2226 43.668 83.125 44.2148Z" fill="white"/>
<path d="M23.8711 106.941C20.7539 112.383 18.0469 117.223 17.8555 117.687C17.0352 119.902 17.9922 123.02 19.9336 124.277C21.9023 125.562 22.668 125.59 28.6016 124.687C31.5547 124.25 34.0977 123.867 34.207 123.867C34.3164 123.867 35.1094 125.672 35.957 127.914C38.1719 133.629 38.5 134.312 39.3203 135.16C40.6328 136.555 41.9727 137.074 43.9141 136.937C47.0859 136.746 47.1133 136.691 54.168 124.551L60.3203 113.887L58.8164 113.695C55.1797 113.203 51.8984 111.453 48.4805 108.199L45.9375 105.766L43.832 105.52C40.5781 105.164 39.1836 104.781 36.5039 103.496C33.8516 102.211 31.6641 100.324 30.4336 98.2187C30.0508 97.5898 29.7227 97.0703 29.668 97.0703C29.6133 97.0703 27.0156 101.527 23.8711 106.941Z" fill="white"/>
<path d="M109.566 98.2187C108.473 100.105 106.23 102.129 103.961 103.305C101.555 104.562 99.5039 105.137 96.3047 105.52L94.0078 105.766L91.793 107.953C88.2656 111.371 84.9297 113.203 81.2656 113.668L79.6797 113.887L85.832 124.551C92.8867 136.691 92.9141 136.746 96.0859 136.937C98.0273 137.074 99.3672 136.555 100.68 135.16C101.5 134.312 101.828 133.629 104.043 127.914C104.891 125.672 105.711 123.867 105.848 123.867C106.012 123.867 108.527 124.25 111.453 124.687C115.883 125.371 117.004 125.48 117.934 125.207C119.766 124.742 120.996 123.785 121.789 122.199C122.555 120.641 122.691 119.273 122.172 117.824C121.898 117.004 110.961 97.8359 110.469 97.2617C110.359 97.125 109.949 97.5625 109.566 98.2187Z" fill="white"/>
</svg>
